# xmcd CD database file
#
# Track frame offsets:
#	150
#	5665
#	28072
#	49110
#	74392
#	93765
#	109062
#	136782
#	157722
#	177122
#	192890
#	221162
#
# Disc length: 3159 seconds
#
# Revision: 6
# Processed by: cddbd v1.5.1PL2 Copyright (c) Steve Scherf et al.
# Submitted via: CDex 1.51
#
DISCID=990c550c
DTITLE=布袋寅泰 - GUITARHYTHM II (DISC?) (デジタルリマスタリング・シリーズ)
DYEAR=1991
DGENRE=Rock
TTITLE0=GUITARHYTHM REPRISE
TTITLE1=BEAT EMOTION
TTITLE2=PRISONER
TTITLE3=SLOW MOTION
TTITLE4=SPHINX
TTITLE5=MARMAID'S DREAM
TTITLE6=PARADISE
TTITLE7=DEVIL'S SUGAR
TTITLE8=DRIVIN' TO YOUR HEART TONIGHT
TTITLE9=ANGEL WALTZ
TTITLE10=YOU
TTITLE11=GUITAR LOVES YOU
EXTD=YEAR: 1991/2000
EXTT0=
EXTT1=
EXTT2=
EXTT3=
EXTT4=
EXTT5=
EXTT6=
EXTT7=
EXTT8=
EXTT9=
EXTT10=
EXTT11=
PLAYORDER=
